<mxfile host="65bd71144e">
    <diagram name="PÃ¡gina-1" id="oDKx01zZ5vxRKA5znKhv">
        <mxGraphModel dx="2932" dy="1298" grid="1" gridSize="10" guides="1" tooltips="1" connect="1" arrows="1" fold="1" page="1" pageScale="1" pageWidth="827" pageHeight="1169" math="0" shadow="0">
            <root>
                <mxCell id="0"/>
                <mxCell id="2" value="Untitled Layer" parent="0"/>
                <mxCell id="3" value="" style="rounded=0;whiteSpace=wrap;html=1;" parent="2" vertex="1">
                    <mxGeometry x="350" y="270" width="120" height="60" as="geometry"/>
                </mxCell>
                <mxCell id="4" value="" style="rounded=0;whiteSpace=wrap;html=1;" parent="2" vertex="1">
                    <mxGeometry x="350" y="270" width="120" height="60" as="geometry"/>
                </mxCell>
                <mxCell id="5" value="" style="rounded=0;whiteSpace=wrap;html=1;" parent="2" vertex="1">
                    <mxGeometry x="350" y="270" width="120" height="60" as="geometry"/>
                </mxCell>
                <mxCell id="6" value="" style="rounded=0;whiteSpace=wrap;html=1;" parent="2" vertex="1">
                    <mxGeometry x="-30" y="10" width="1430" height="1960" as="geometry"/>
                </mxCell>
                <mxCell id="1" parent="0"/>
                <mxCell id="-gaBI5YNp0DLK8B5nc4l-1" value="&amp;lt;&amp;lt;component&amp;gt;&amp;gt;&lt;div&gt;&amp;lt;&amp;lt;container (C4)&amp;gt;&amp;gt;&lt;/div&gt;&lt;div&gt;MDV&lt;/div&gt;&lt;div&gt;&lt;br&gt;&lt;/div&gt;&lt;div&gt;&lt;br&gt;&lt;/div&gt;&lt;div&gt;&lt;br&gt;&lt;/div&gt;&lt;div&gt;&lt;br&gt;&lt;/div&gt;&lt;div&gt;&lt;br&gt;&lt;/div&gt;&lt;div&gt;&lt;br&gt;&lt;/div&gt;&lt;div&gt;&lt;br&gt;&lt;/div&gt;&lt;div&gt;&lt;br&gt;&lt;/div&gt;&lt;div&gt;&lt;br&gt;&lt;/div&gt;&lt;div&gt;&lt;br&gt;&lt;/div&gt;&lt;div&gt;&lt;br&gt;&lt;/div&gt;&lt;div&gt;&lt;br&gt;&lt;/div&gt;&lt;div&gt;&lt;br&gt;&lt;/div&gt;&lt;div&gt;&lt;br&gt;&lt;/div&gt;&lt;div&gt;&lt;br&gt;&lt;/div&gt;&lt;div&gt;&lt;br&gt;&lt;/div&gt;&lt;div&gt;&lt;br&gt;&lt;/div&gt;&lt;div&gt;&lt;br&gt;&lt;/div&gt;&lt;div&gt;&lt;br&gt;&lt;/div&gt;&lt;div&gt;&lt;br&gt;&lt;/div&gt;&lt;div&gt;&lt;br&gt;&lt;/div&gt;&lt;div&gt;&lt;br&gt;&lt;/div&gt;&lt;div&gt;&lt;br&gt;&lt;/div&gt;&lt;div&gt;&lt;br&gt;&lt;/div&gt;&lt;div&gt;&lt;br&gt;&lt;/div&gt;&lt;div&gt;&lt;br&gt;&lt;/div&gt;&lt;div&gt;&lt;br&gt;&lt;/div&gt;&lt;div&gt;&lt;br&gt;&lt;/div&gt;&lt;div&gt;&lt;br&gt;&lt;/div&gt;&lt;div&gt;&lt;br&gt;&lt;/div&gt;&lt;div&gt;&lt;br&gt;&lt;/div&gt;&lt;div&gt;&lt;br&gt;&lt;/div&gt;&lt;div&gt;&lt;br&gt;&lt;/div&gt;&lt;div&gt;&lt;br&gt;&lt;/div&gt;&lt;div&gt;&lt;br&gt;&lt;/div&gt;&lt;div&gt;&lt;br&gt;&lt;/div&gt;&lt;div&gt;&lt;br&gt;&lt;/div&gt;&lt;div&gt;&lt;br&gt;&lt;/div&gt;&lt;div&gt;&lt;br&gt;&lt;/div&gt;&lt;div&gt;&lt;br&gt;&lt;/div&gt;&lt;div&gt;&lt;br&gt;&lt;/div&gt;&lt;div&gt;&lt;br&gt;&lt;/div&gt;&lt;div&gt;&lt;br&gt;&lt;/div&gt;&lt;div&gt;&lt;br&gt;&lt;/div&gt;&lt;div&gt;&lt;br&gt;&lt;/div&gt;&lt;div&gt;&lt;br&gt;&lt;/div&gt;&lt;div&gt;&lt;br&gt;&lt;/div&gt;&lt;div&gt;&lt;br&gt;&lt;/div&gt;&lt;div&gt;&lt;br&gt;&lt;/div&gt;&lt;div&gt;&lt;br&gt;&lt;/div&gt;&lt;div&gt;&lt;br&gt;&lt;/div&gt;&lt;div&gt;&lt;br&gt;&lt;/div&gt;&lt;div&gt;&lt;br&gt;&lt;/div&gt;&lt;div&gt;&lt;br&gt;&lt;/div&gt;&lt;div&gt;&lt;br&gt;&lt;/div&gt;&lt;div&gt;&lt;br&gt;&lt;/div&gt;&lt;div&gt;&lt;br&gt;&lt;/div&gt;&lt;div&gt;&lt;br&gt;&lt;/div&gt;&lt;div&gt;&lt;br&gt;&lt;/div&gt;&lt;div&gt;&lt;br&gt;&lt;/div&gt;&lt;div&gt;&lt;br&gt;&lt;/div&gt;&lt;div&gt;&lt;br&gt;&lt;/div&gt;" style="html=1;dropTarget=0;whiteSpace=wrap;" parent="1" vertex="1">
                    <mxGeometry x="360" y="160" width="650" height="970" as="geometry"/>
                </mxCell>
                <mxCell id="-gaBI5YNp0DLK8B5nc4l-2" value="" style="shape=module;jettyWidth=8;jettyHeight=4;" parent="-gaBI5YNp0DLK8B5nc4l-1" vertex="1">
                    <mxGeometry x="1" width="20" height="20" relative="1" as="geometry">
                        <mxPoint x="-27" y="7" as="offset"/>
                    </mxGeometry>
                </mxCell>
                <mxCell id="-gaBI5YNp0DLK8B5nc4l-3" value="Frameworks and Drives Layer&lt;div&gt;&lt;br&gt;&lt;/div&gt;&lt;div&gt;&lt;br&gt;&lt;/div&gt;&lt;div&gt;&lt;br&gt;&lt;/div&gt;&lt;div&gt;&lt;br&gt;&lt;/div&gt;&lt;div&gt;&lt;br&gt;&lt;/div&gt;" style="shape=folder;fontStyle=1;tabWidth=80;tabHeight=30;tabPosition=left;html=1;boundedLbl=1;whiteSpace=wrap;fillColor=#dae8fc;strokeColor=#6c8ebf;" parent="1" vertex="1">
                    <mxGeometry x="390" y="210" width="570" height="150" as="geometry"/>
                </mxCell>
                <mxCell id="-gaBI5YNp0DLK8B5nc4l-4" value="Interface Adapters Layer&lt;div&gt;&lt;br&gt;&lt;/div&gt;&lt;div&gt;&lt;br&gt;&lt;/div&gt;&lt;div&gt;&lt;br&gt;&lt;/div&gt;&lt;div&gt;&lt;br&gt;&lt;/div&gt;&lt;div&gt;&lt;br&gt;&lt;/div&gt;" style="shape=folder;fontStyle=1;tabWidth=80;tabHeight=30;tabPosition=left;html=1;boundedLbl=1;whiteSpace=wrap;fillColor=#d5e8d4;strokeColor=#82b366;" parent="1" vertex="1">
                    <mxGeometry x="390" y="500" width="570" height="150" as="geometry"/>
                </mxCell>
                <mxCell id="-gaBI5YNp0DLK8B5nc4l-5" value="Application Business Rules&lt;div&gt;&lt;br&gt;&lt;/div&gt;&lt;div&gt;&lt;br&gt;&lt;/div&gt;&lt;div&gt;&lt;br&gt;&lt;/div&gt;&lt;div&gt;&lt;br&gt;&lt;/div&gt;&lt;div&gt;&lt;br&gt;&lt;/div&gt;" style="shape=folder;fontStyle=1;tabWidth=80;tabHeight=30;tabPosition=left;html=1;boundedLbl=1;whiteSpace=wrap;fillColor=#e1d5e7;strokeColor=#9673a6;" parent="1" vertex="1">
                    <mxGeometry x="390" y="740" width="570" height="150" as="geometry"/>
                </mxCell>
                <mxCell id="-gaBI5YNp0DLK8B5nc4l-6" value="Application Business Rules&lt;div&gt;&lt;br&gt;&lt;/div&gt;&lt;div&gt;&lt;br&gt;&lt;/div&gt;&lt;div&gt;&lt;br&gt;&lt;/div&gt;&lt;div&gt;&lt;br&gt;&lt;/div&gt;&lt;div&gt;&lt;br&gt;&lt;/div&gt;" style="shape=folder;fontStyle=1;tabWidth=80;tabHeight=30;tabPosition=left;html=1;boundedLbl=1;whiteSpace=wrap;fillColor=#ffe6cc;strokeColor=#d79b00;" parent="1" vertex="1">
                    <mxGeometry x="390" y="960" width="570" height="150" as="geometry"/>
                </mxCell>
                <mxCell id="-gaBI5YNp0DLK8B5nc4l-7" value="&amp;lt;&amp;lt;component&amp;gt;&amp;gt;&lt;div&gt;Routing&lt;/div&gt;" style="html=1;dropTarget=0;whiteSpace=wrap;" parent="1" vertex="1">
                    <mxGeometry x="420" y="270" width="140" height="70" as="geometry"/>
                </mxCell>
                <mxCell id="-gaBI5YNp0DLK8B5nc4l-8" value="" style="shape=module;jettyWidth=8;jettyHeight=4;" parent="-gaBI5YNp0DLK8B5nc4l-7" vertex="1">
                    <mxGeometry x="1" width="20" height="20" relative="1" as="geometry">
                        <mxPoint x="-27" y="7" as="offset"/>
                    </mxGeometry>
                </mxCell>
                <mxCell id="-gaBI5YNp0DLK8B5nc4l-35" style="edgeStyle=orthogonalEdgeStyle;rounded=0;orthogonalLoop=1;jettySize=auto;html=1;endArrow=none;endFill=0;" parent="1" source="-gaBI5YNp0DLK8B5nc4l-9" target="-gaBI5YNp0DLK8B5nc4l-33" edge="1">
                    <mxGeometry relative="1" as="geometry">
                        <Array as="points">
                            <mxPoint x="460" y="650"/>
                            <mxPoint x="460" y="650"/>
                        </Array>
                    </mxGeometry>
                </mxCell>
                <mxCell id="-gaBI5YNp0DLK8B5nc4l-74" style="edgeStyle=orthogonalEdgeStyle;rounded=0;orthogonalLoop=1;jettySize=auto;html=1;entryX=0.5;entryY=0;entryDx=0;entryDy=0;endArrow=none;endFill=0;" parent="1" source="-gaBI5YNp0DLK8B5nc4l-9" target="-gaBI5YNp0DLK8B5nc4l-69" edge="1">
                    <mxGeometry relative="1" as="geometry">
                        <Array as="points">
                            <mxPoint x="553" y="660"/>
                        </Array>
                    </mxGeometry>
                </mxCell>
                <mxCell id="-gaBI5YNp0DLK8B5nc4l-9" value="&amp;lt;&amp;lt;component&amp;gt;&amp;gt;&lt;div&gt;Controller&lt;/div&gt;" style="html=1;dropTarget=0;whiteSpace=wrap;" parent="1" vertex="1">
                    <mxGeometry x="420" y="560" width="140" height="70" as="geometry"/>
                </mxCell>
                <mxCell id="-gaBI5YNp0DLK8B5nc4l-10" value="" style="shape=module;jettyWidth=8;jettyHeight=4;" parent="-gaBI5YNp0DLK8B5nc4l-9" vertex="1">
                    <mxGeometry x="1" width="20" height="20" relative="1" as="geometry">
                        <mxPoint x="-27" y="7" as="offset"/>
                    </mxGeometry>
                </mxCell>
                <mxCell id="-gaBI5YNp0DLK8B5nc4l-64" style="edgeStyle=orthogonalEdgeStyle;rounded=0;orthogonalLoop=1;jettySize=auto;html=1;entryX=0.5;entryY=0;entryDx=0;entryDy=0;endArrow=none;endFill=0;" parent="1" source="-gaBI5YNp0DLK8B5nc4l-11" target="-gaBI5YNp0DLK8B5nc4l-63" edge="1">
                    <mxGeometry relative="1" as="geometry">
                        <Array as="points">
                            <mxPoint x="500" y="880"/>
                            <mxPoint x="673" y="880"/>
                            <mxPoint x="673" y="929"/>
                        </Array>
                    </mxGeometry>
                </mxCell>
                <mxCell id="-gaBI5YNp0DLK8B5nc4l-11" value="&amp;lt;&amp;lt;component&amp;gt;&amp;gt;&lt;div&gt;Application Service&lt;/div&gt;" style="html=1;dropTarget=0;whiteSpace=wrap;" parent="1" vertex="1">
                    <mxGeometry x="430" y="790" width="140" height="70" as="geometry"/>
                </mxCell>
                <mxCell id="-gaBI5YNp0DLK8B5nc4l-12" value="" style="shape=module;jettyWidth=8;jettyHeight=4;" parent="-gaBI5YNp0DLK8B5nc4l-11" vertex="1">
                    <mxGeometry x="1" width="20" height="20" relative="1" as="geometry">
                        <mxPoint x="-27" y="7" as="offset"/>
                    </mxGeometry>
                </mxCell>
                <mxCell id="-gaBI5YNp0DLK8B5nc4l-13" value="&amp;lt;&amp;lt;component&amp;gt;&amp;gt;&lt;div&gt;Domain Model (DDD)&lt;/div&gt;" style="html=1;dropTarget=0;whiteSpace=wrap;" parent="1" vertex="1">
                    <mxGeometry x="605" y="1030" width="140" height="70" as="geometry"/>
                </mxCell>
                <mxCell id="-gaBI5YNp0DLK8B5nc4l-14" value="" style="shape=module;jettyWidth=8;jettyHeight=4;" parent="-gaBI5YNp0DLK8B5nc4l-13" vertex="1">
                    <mxGeometry x="1" width="20" height="20" relative="1" as="geometry">
                        <mxPoint x="-27" y="7" as="offset"/>
                    </mxGeometry>
                </mxCell>
                <mxCell id="-gaBI5YNp0DLK8B5nc4l-83" style="edgeStyle=orthogonalEdgeStyle;rounded=0;orthogonalLoop=1;jettySize=auto;html=1;entryX=0.5;entryY=1;entryDx=0;entryDy=0;endArrow=none;endFill=0;" parent="1" source="-gaBI5YNp0DLK8B5nc4l-15" target="-gaBI5YNp0DLK8B5nc4l-80" edge="1">
                    <mxGeometry relative="1" as="geometry"/>
                </mxCell>
                <mxCell id="-gaBI5YNp0DLK8B5nc4l-87" value="Data Schema API&amp;nbsp;" style="edgeLabel;html=1;align=center;verticalAlign=middle;resizable=0;points=[];" parent="-gaBI5YNp0DLK8B5nc4l-83" vertex="1" connectable="0">
                    <mxGeometry x="0.819" relative="1" as="geometry">
                        <mxPoint y="5" as="offset"/>
                    </mxGeometry>
                </mxCell>
                <mxCell id="-gaBI5YNp0DLK8B5nc4l-15" value="&amp;lt;&amp;lt;component&amp;gt;&amp;gt;&lt;div&gt;Repository&lt;/div&gt;" style="html=1;dropTarget=0;whiteSpace=wrap;" parent="1" vertex="1">
                    <mxGeometry x="780" y="560" width="140" height="70" as="geometry"/>
                </mxCell>
                <mxCell id="-gaBI5YNp0DLK8B5nc4l-16" value="" style="shape=module;jettyWidth=8;jettyHeight=4;" parent="-gaBI5YNp0DLK8B5nc4l-15" vertex="1">
                    <mxGeometry x="1" width="20" height="20" relative="1" as="geometry">
                        <mxPoint x="-27" y="7" as="offset"/>
                    </mxGeometry>
                </mxCell>
                <mxCell id="-gaBI5YNp0DLK8B5nc4l-17" value="&amp;lt;&amp;lt;component&amp;gt;&amp;gt;&lt;div&gt;DTO&lt;/div&gt;" style="html=1;dropTarget=0;whiteSpace=wrap;" parent="1" vertex="1">
                    <mxGeometry x="605" y="680" width="140" height="70" as="geometry"/>
                </mxCell>
                <mxCell id="-gaBI5YNp0DLK8B5nc4l-18" value="" style="shape=module;jettyWidth=8;jettyHeight=4;" parent="-gaBI5YNp0DLK8B5nc4l-17" vertex="1">
                    <mxGeometry x="1" width="20" height="20" relative="1" as="geometry">
                        <mxPoint x="-27" y="7" as="offset"/>
                    </mxGeometry>
                </mxCell>
                <mxCell id="-gaBI5YNp0DLK8B5nc4l-84" style="edgeStyle=orthogonalEdgeStyle;rounded=0;orthogonalLoop=1;jettySize=auto;html=1;entryX=0;entryY=0.5;entryDx=0;entryDy=0;endArrow=none;endFill=0;" parent="1" source="-gaBI5YNp0DLK8B5nc4l-19" target="-gaBI5YNp0DLK8B5nc4l-80" edge="1">
                    <mxGeometry relative="1" as="geometry">
                        <Array as="points">
                            <mxPoint x="770" y="440"/>
                            <mxPoint x="770" y="440"/>
                        </Array>
                    </mxGeometry>
                </mxCell>
                <mxCell id="-gaBI5YNp0DLK8B5nc4l-19" value="&amp;lt;&amp;lt;component&amp;gt;&amp;gt;&lt;div&gt;Data Schema&lt;/div&gt;" style="html=1;dropTarget=0;whiteSpace=wrap;" parent="1" vertex="1">
                    <mxGeometry x="615" y="400" width="140" height="70" as="geometry"/>
                </mxCell>
                <mxCell id="-gaBI5YNp0DLK8B5nc4l-20" value="" style="shape=module;jettyWidth=8;jettyHeight=4;" parent="-gaBI5YNp0DLK8B5nc4l-19" vertex="1">
                    <mxGeometry x="1" width="20" height="20" relative="1" as="geometry">
                        <mxPoint x="-27" y="7" as="offset"/>
                    </mxGeometry>
                </mxCell>
                <mxCell id="81" style="edgeStyle=none;html=1;exitX=1;exitY=0.5;exitDx=0;exitDy=0;entryX=0;entryY=0;entryDx=140;entryDy=50;entryPerimeter=0;dashed=1;dashPattern=1 1;" parent="1" source="-gaBI5YNp0DLK8B5nc4l-21" target="53" edge="1">
                    <mxGeometry relative="1" as="geometry">
                        <Array as="points">
                            <mxPoint x="1350" y="305"/>
                            <mxPoint x="1350" y="1380"/>
                        </Array>
                    </mxGeometry>
                </mxCell>
                <mxCell id="82" value="&amp;lt;&amp;lt;manifest&amp;gt;&amp;gt;" style="edgeLabel;html=1;align=center;verticalAlign=middle;resizable=0;points=[];" parent="81" vertex="1" connectable="0">
                    <mxGeometry x="0.2521" y="-1" relative="1" as="geometry">
                        <mxPoint as="offset"/>
                    </mxGeometry>
                </mxCell>
                <mxCell id="-gaBI5YNp0DLK8B5nc4l-21" value="&amp;lt;&amp;lt;component&amp;gt;&amp;gt;&lt;div&gt;Persistence&lt;/div&gt;" style="html=1;dropTarget=0;whiteSpace=wrap;" parent="1" vertex="1">
                    <mxGeometry x="790" y="270" width="140" height="70" as="geometry"/>
                </mxCell>
                <mxCell id="-gaBI5YNp0DLK8B5nc4l-22" value="" style="shape=module;jettyWidth=8;jettyHeight=4;" parent="-gaBI5YNp0DLK8B5nc4l-21" vertex="1">
                    <mxGeometry x="1" width="20" height="20" relative="1" as="geometry">
                        <mxPoint x="-27" y="7" as="offset"/>
                    </mxGeometry>
                </mxCell>
                <mxCell id="-gaBI5YNp0DLK8B5nc4l-24" value="" style="ellipse;whiteSpace=wrap;html=1;align=center;aspect=fixed;fillColor=none;strokeColor=none;resizable=0;perimeter=centerPerimeter;rotatable=0;allowArrows=0;points=[];outlineConnect=1;" parent="1" vertex="1">
                    <mxGeometry x="470" y="420" width="10" height="10" as="geometry"/>
                </mxCell>
                <mxCell id="-gaBI5YNp0DLK8B5nc4l-27" style="edgeStyle=orthogonalEdgeStyle;rounded=0;orthogonalLoop=1;jettySize=auto;html=1;entryX=0.5;entryY=0;entryDx=0;entryDy=0;endArrow=none;endFill=0;" parent="1" source="-gaBI5YNp0DLK8B5nc4l-25" target="-gaBI5YNp0DLK8B5nc4l-9" edge="1">
                    <mxGeometry relative="1" as="geometry"/>
                </mxCell>
                <mxCell id="-gaBI5YNp0DLK8B5nc4l-30" value="Controller API" style="edgeLabel;html=1;align=center;verticalAlign=middle;resizable=0;points=[];" parent="-gaBI5YNp0DLK8B5nc4l-27" vertex="1" connectable="0">
                    <mxGeometry x="-0.7046" y="-1" relative="1" as="geometry">
                        <mxPoint as="offset"/>
                    </mxGeometry>
                </mxCell>
                <mxCell id="-gaBI5YNp0DLK8B5nc4l-25" value="" style="shape=providedRequiredInterface;html=1;verticalLabelPosition=bottom;sketch=0;rotation=-90;" parent="1" vertex="1">
                    <mxGeometry x="480" y="430" width="20" height="20" as="geometry"/>
                </mxCell>
                <mxCell id="-gaBI5YNp0DLK8B5nc4l-26" style="edgeStyle=orthogonalEdgeStyle;rounded=0;orthogonalLoop=1;jettySize=auto;html=1;entryX=1;entryY=0.5;entryDx=0;entryDy=0;entryPerimeter=0;endArrow=none;endFill=0;" parent="1" source="-gaBI5YNp0DLK8B5nc4l-7" target="-gaBI5YNp0DLK8B5nc4l-25" edge="1">
                    <mxGeometry relative="1" as="geometry"/>
                </mxCell>
                <mxCell id="-gaBI5YNp0DLK8B5nc4l-36" style="edgeStyle=orthogonalEdgeStyle;rounded=0;orthogonalLoop=1;jettySize=auto;html=1;entryX=0.5;entryY=0;entryDx=0;entryDy=0;endArrow=none;endFill=0;" parent="1" source="-gaBI5YNp0DLK8B5nc4l-33" target="-gaBI5YNp0DLK8B5nc4l-11" edge="1">
                    <mxGeometry relative="1" as="geometry">
                        <Array as="points">
                            <mxPoint x="460" y="730"/>
                            <mxPoint x="500" y="730"/>
                        </Array>
                    </mxGeometry>
                </mxCell>
                <mxCell id="-gaBI5YNp0DLK8B5nc4l-37" value="Application Service API" style="edgeLabel;html=1;align=center;verticalAlign=middle;resizable=0;points=[];" parent="-gaBI5YNp0DLK8B5nc4l-36" vertex="1" connectable="0">
                    <mxGeometry x="-0.7941" y="-2" relative="1" as="geometry">
                        <mxPoint as="offset"/>
                    </mxGeometry>
                </mxCell>
                <mxCell id="-gaBI5YNp0DLK8B5nc4l-33" value="" style="shape=providedRequiredInterface;html=1;verticalLabelPosition=bottom;sketch=0;rotation=-90;" parent="1" vertex="1">
                    <mxGeometry x="450" y="690" width="20" height="20" as="geometry"/>
                </mxCell>
                <mxCell id="-gaBI5YNp0DLK8B5nc4l-42" value="" style="ellipse;whiteSpace=wrap;html=1;align=center;aspect=fixed;fillColor=none;strokeColor=none;resizable=0;perimeter=centerPerimeter;rotatable=0;allowArrows=0;points=[];outlineConnect=1;" parent="1" vertex="1">
                    <mxGeometry x="680" y="980" width="10" height="10" as="geometry"/>
                </mxCell>
                <mxCell id="-gaBI5YNp0DLK8B5nc4l-47" style="edgeStyle=orthogonalEdgeStyle;rounded=0;orthogonalLoop=1;jettySize=auto;html=1;endArrow=none;endFill=0;" parent="1" source="-gaBI5YNp0DLK8B5nc4l-44" target="-gaBI5YNp0DLK8B5nc4l-15" edge="1">
                    <mxGeometry relative="1" as="geometry"/>
                </mxCell>
                <mxCell id="-gaBI5YNp0DLK8B5nc4l-44" value="" style="shape=providedRequiredInterface;html=1;verticalLabelPosition=bottom;sketch=0;rotation=90;" parent="1" vertex="1">
                    <mxGeometry x="840" y="700" width="20" height="20" as="geometry"/>
                </mxCell>
                <mxCell id="-gaBI5YNp0DLK8B5nc4l-46" style="edgeStyle=orthogonalEdgeStyle;rounded=0;orthogonalLoop=1;jettySize=auto;html=1;entryX=1;entryY=0.5;entryDx=0;entryDy=0;entryPerimeter=0;endArrow=none;endFill=0;" parent="1" source="-gaBI5YNp0DLK8B5nc4l-11" target="-gaBI5YNp0DLK8B5nc4l-44" edge="1">
                    <mxGeometry relative="1" as="geometry"/>
                </mxCell>
                <mxCell id="-gaBI5YNp0DLK8B5nc4l-48" value="Repository API" style="edgeLabel;html=1;align=center;verticalAlign=middle;resizable=0;points=[];" parent="-gaBI5YNp0DLK8B5nc4l-46" vertex="1" connectable="0">
                    <mxGeometry x="0.8562" relative="1" as="geometry">
                        <mxPoint as="offset"/>
                    </mxGeometry>
                </mxCell>
                <mxCell id="-gaBI5YNp0DLK8B5nc4l-49" value="" style="shape=providedRequiredInterface;html=1;verticalLabelPosition=bottom;sketch=0;rotation=90;" parent="1" vertex="1">
                    <mxGeometry x="880" y="430" width="20" height="20" as="geometry"/>
                </mxCell>
                <mxCell id="-gaBI5YNp0DLK8B5nc4l-50" style="edgeStyle=orthogonalEdgeStyle;rounded=0;orthogonalLoop=1;jettySize=auto;html=1;entryX=1;entryY=0.5;entryDx=0;entryDy=0;entryPerimeter=0;endArrow=none;endFill=0;" parent="1" source="-gaBI5YNp0DLK8B5nc4l-15" target="-gaBI5YNp0DLK8B5nc4l-49" edge="1">
                    <mxGeometry relative="1" as="geometry">
                        <Array as="points">
                            <mxPoint x="890" y="530"/>
                            <mxPoint x="890" y="530"/>
                        </Array>
                    </mxGeometry>
                </mxCell>
                <mxCell id="-gaBI5YNp0DLK8B5nc4l-54" value="Persistence API" style="edgeLabel;html=1;align=center;verticalAlign=middle;resizable=0;points=[];" parent="-gaBI5YNp0DLK8B5nc4l-50" vertex="1" connectable="0">
                    <mxGeometry x="0.6407" y="2" relative="1" as="geometry">
                        <mxPoint x="2" y="-60" as="offset"/>
                    </mxGeometry>
                </mxCell>
                <mxCell id="-gaBI5YNp0DLK8B5nc4l-53" style="edgeStyle=orthogonalEdgeStyle;rounded=0;orthogonalLoop=1;jettySize=auto;html=1;endArrow=none;endFill=0;" parent="1" source="-gaBI5YNp0DLK8B5nc4l-49" target="-gaBI5YNp0DLK8B5nc4l-21" edge="1">
                    <mxGeometry relative="1" as="geometry">
                        <Array as="points">
                            <mxPoint x="890" y="370"/>
                            <mxPoint x="890" y="370"/>
                        </Array>
                    </mxGeometry>
                </mxCell>
                <mxCell id="-gaBI5YNp0DLK8B5nc4l-62" value="" style="ellipse;whiteSpace=wrap;html=1;aspect=fixed;" parent="1" vertex="1">
                    <mxGeometry x="667.5" y="925" width="35" height="35" as="geometry"/>
                </mxCell>
                <mxCell id="-gaBI5YNp0DLK8B5nc4l-65" style="edgeStyle=orthogonalEdgeStyle;rounded=0;orthogonalLoop=1;jettySize=auto;html=1;endArrow=none;endFill=0;" parent="1" source="-gaBI5YNp0DLK8B5nc4l-63" target="-gaBI5YNp0DLK8B5nc4l-13" edge="1">
                    <mxGeometry relative="1" as="geometry">
                        <Array as="points">
                            <mxPoint x="685" y="1010"/>
                            <mxPoint x="685" y="1010"/>
                        </Array>
                    </mxGeometry>
                </mxCell>
                <mxCell id="-gaBI5YNp0DLK8B5nc4l-66" value="Model API" style="edgeLabel;html=1;align=center;verticalAlign=middle;resizable=0;points=[];" parent="-gaBI5YNp0DLK8B5nc4l-65" vertex="1" connectable="0">
                    <mxGeometry x="-0.7786" y="1" relative="1" as="geometry">
                        <mxPoint as="offset"/>
                    </mxGeometry>
                </mxCell>
                <mxCell id="-gaBI5YNp0DLK8B5nc4l-63" value="" style="ellipse;whiteSpace=wrap;html=1;aspect=fixed;" parent="1" vertex="1">
                    <mxGeometry x="671.25" y="928.75" width="27.5" height="27.5" as="geometry"/>
                </mxCell>
                <mxCell id="-gaBI5YNp0DLK8B5nc4l-67" style="edgeStyle=orthogonalEdgeStyle;rounded=0;orthogonalLoop=1;jettySize=auto;html=1;entryX=0.842;entryY=0.972;entryDx=0;entryDy=0;entryPerimeter=0;endArrow=none;endFill=0;" parent="1" source="-gaBI5YNp0DLK8B5nc4l-63" target="-gaBI5YNp0DLK8B5nc4l-15" edge="1">
                    <mxGeometry relative="1" as="geometry"/>
                </mxCell>
                <mxCell id="-gaBI5YNp0DLK8B5nc4l-69" value="" style="ellipse;whiteSpace=wrap;html=1;aspect=fixed;" parent="1" vertex="1">
                    <mxGeometry x="535" y="690" width="35" height="35" as="geometry"/>
                </mxCell>
                <mxCell id="-gaBI5YNp0DLK8B5nc4l-70" value="" style="ellipse;whiteSpace=wrap;html=1;aspect=fixed;" parent="1" vertex="1">
                    <mxGeometry x="539.38" y="694.38" width="26.25" height="26.25" as="geometry"/>
                </mxCell>
                <mxCell id="-gaBI5YNp0DLK8B5nc4l-71" style="edgeStyle=orthogonalEdgeStyle;rounded=0;orthogonalLoop=1;jettySize=auto;html=1;entryX=0.024;entryY=0.391;entryDx=0;entryDy=0;entryPerimeter=0;endArrow=none;endFill=0;" parent="1" source="-gaBI5YNp0DLK8B5nc4l-69" target="-gaBI5YNp0DLK8B5nc4l-17" edge="1">
                    <mxGeometry relative="1" as="geometry"/>
                </mxCell>
                <mxCell id="-gaBI5YNp0DLK8B5nc4l-73" style="edgeStyle=orthogonalEdgeStyle;rounded=0;orthogonalLoop=1;jettySize=auto;html=1;entryX=0.881;entryY=-0.007;entryDx=0;entryDy=0;entryPerimeter=0;endArrow=none;endFill=0;" parent="1" source="-gaBI5YNp0DLK8B5nc4l-69" target="-gaBI5YNp0DLK8B5nc4l-11" edge="1">
                    <mxGeometry relative="1" as="geometry"/>
                </mxCell>
                <mxCell id="-gaBI5YNp0DLK8B5nc4l-78" value="DTO API" style="edgeLabel;html=1;align=center;verticalAlign=middle;resizable=0;points=[];" parent="-gaBI5YNp0DLK8B5nc4l-73" vertex="1" connectable="0">
                    <mxGeometry x="-0.8187" y="-1" relative="1" as="geometry">
                        <mxPoint x="1" y="-6" as="offset"/>
                    </mxGeometry>
                </mxCell>
                <mxCell id="-gaBI5YNp0DLK8B5nc4l-79" value="" style="ellipse;whiteSpace=wrap;html=1;aspect=fixed;" parent="1" vertex="1">
                    <mxGeometry x="810" y="422.5" width="35" height="35" as="geometry"/>
                </mxCell>
                <mxCell id="-gaBI5YNp0DLK8B5nc4l-80" value="" style="ellipse;whiteSpace=wrap;html=1;aspect=fixed;" parent="1" vertex="1">
                    <mxGeometry x="814.38" y="426.87" width="26.25" height="26.25" as="geometry"/>
                </mxCell>
                <mxCell id="-gaBI5YNp0DLK8B5nc4l-86" style="edgeStyle=orthogonalEdgeStyle;rounded=0;orthogonalLoop=1;jettySize=auto;html=1;entryX=0.29;entryY=1.015;entryDx=0;entryDy=0;entryPerimeter=0;endArrow=none;endFill=0;" parent="1" source="-gaBI5YNp0DLK8B5nc4l-79" target="-gaBI5YNp0DLK8B5nc4l-21" edge="1">
                    <mxGeometry relative="1" as="geometry">
                        <Array as="points">
                            <mxPoint x="828" y="381"/>
                            <mxPoint x="828" y="341"/>
                        </Array>
                    </mxGeometry>
                </mxCell>
                <mxCell id="-gaBI5YNp0DLK8B5nc4l-92" style="edgeStyle=orthogonalEdgeStyle;rounded=0;orthogonalLoop=1;jettySize=auto;html=1;endArrow=none;endFill=0;" parent="1" source="-gaBI5YNp0DLK8B5nc4l-88" target="-gaBI5YNp0DLK8B5nc4l-91" edge="1">
                    <mxGeometry relative="1" as="geometry"/>
                </mxCell>
                <mxCell id="-gaBI5YNp0DLK8B5nc4l-94" value="MDV API" style="edgeLabel;html=1;align=center;verticalAlign=middle;resizable=0;points=[];" parent="-gaBI5YNp0DLK8B5nc4l-92" vertex="1" connectable="0">
                    <mxGeometry x="-0.8022" y="-1" relative="1" as="geometry">
                        <mxPoint y="21" as="offset"/>
                    </mxGeometry>
                </mxCell>
                <mxCell id="-gaBI5YNp0DLK8B5nc4l-88" value="" style="ellipse;whiteSpace=wrap;html=1;aspect=fixed;" parent="1" vertex="1">
                    <mxGeometry x="470" y="30" width="30" height="30" as="geometry"/>
                </mxCell>
                <mxCell id="-gaBI5YNp0DLK8B5nc4l-91" value="" style="verticalLabelPosition=bottom;verticalAlign=top;html=1;shape=mxgraph.basic.rect;fillColor2=none;strokeWidth=1;size=20;indent=5;" parent="1" vertex="1">
                    <mxGeometry x="475" y="150" width="20" height="20" as="geometry"/>
                </mxCell>
                <mxCell id="-gaBI5YNp0DLK8B5nc4l-93" style="edgeStyle=orthogonalEdgeStyle;rounded=0;orthogonalLoop=1;jettySize=auto;html=1;entryX=0.46;entryY=0.046;entryDx=0;entryDy=0;entryPerimeter=0;endArrow=none;endFill=0;" parent="1" source="-gaBI5YNp0DLK8B5nc4l-91" target="-gaBI5YNp0DLK8B5nc4l-7" edge="1">
                    <mxGeometry relative="1" as="geometry"/>
                </mxCell>
                <mxCell id="50" value="&lt;div&gt;Â«ComponentÂ»&lt;/div&gt;&lt;div&gt;Â«ContainerÂ»&lt;/div&gt;&lt;div&gt;MDV&lt;/div&gt;&lt;div&gt;&lt;br&gt;&lt;/div&gt;&lt;div&gt;&lt;br&gt;&lt;/div&gt;&lt;div&gt;&lt;br&gt;&lt;/div&gt;&lt;div&gt;&lt;br&gt;&lt;/div&gt;&lt;div&gt;&lt;br&gt;&lt;/div&gt;&lt;div&gt;&lt;br&gt;&lt;/div&gt;&lt;div&gt;&lt;br&gt;&lt;/div&gt;&lt;div&gt;&lt;br&gt;&lt;/div&gt;&lt;div&gt;&lt;br&gt;&lt;/div&gt;&lt;div&gt;&lt;br&gt;&lt;/div&gt;&lt;div&gt;&lt;br&gt;&lt;/div&gt;&lt;div&gt;&lt;br&gt;&lt;/div&gt;&lt;div&gt;&lt;br&gt;&lt;/div&gt;&lt;div&gt;&lt;br&gt;&lt;/div&gt;&lt;div&gt;&lt;br&gt;&lt;/div&gt;&lt;div&gt;&lt;br&gt;&lt;/div&gt;&lt;div&gt;&lt;br&gt;&lt;/div&gt;&lt;div&gt;&lt;br&gt;&lt;/div&gt;&lt;div&gt;&lt;br&gt;&lt;/div&gt;&lt;div&gt;&lt;br&gt;&lt;/div&gt;&lt;div&gt;&lt;br&gt;&lt;/div&gt;&lt;div&gt;&lt;br&gt;&lt;/div&gt;&lt;div&gt;&lt;br&gt;&lt;/div&gt;&lt;div&gt;&lt;br&gt;&lt;/div&gt;&lt;div&gt;&lt;br&gt;&lt;/div&gt;&lt;div&gt;&lt;br&gt;&lt;/div&gt;&lt;div&gt;&lt;br&gt;&lt;/div&gt;&lt;div&gt;&lt;br&gt;&lt;/div&gt;&lt;div&gt;&lt;br&gt;&lt;/div&gt;&lt;div&gt;&lt;br&gt;&lt;/div&gt;&lt;div&gt;&lt;br&gt;&lt;/div&gt;&lt;div&gt;&lt;br&gt;&lt;/div&gt;&lt;div&gt;&lt;br&gt;&lt;/div&gt;&lt;div&gt;&lt;br&gt;&lt;/div&gt;&lt;div&gt;&lt;br&gt;&lt;/div&gt;&lt;div&gt;&lt;br&gt;&lt;/div&gt;&lt;div&gt;&lt;br&gt;&lt;/div&gt;&lt;div&gt;&lt;br&gt;&lt;/div&gt;&lt;div&gt;&lt;br&gt;&lt;/div&gt;&lt;div&gt;&lt;br&gt;&lt;/div&gt;" style="shape=folder;fontStyle=1;tabWidth=80;tabHeight=30;tabPosition=left;html=1;boundedLbl=1;whiteSpace=wrap;" parent="1" vertex="1">
                    <mxGeometry x="415" y="1210" width="520" height="670" as="geometry"/>
                </mxCell>
                <mxCell id="51" value="Infrastructure&lt;div&gt;&lt;br&gt;&lt;/div&gt;&lt;div&gt;&lt;br&gt;&lt;/div&gt;&lt;div&gt;&lt;br&gt;&lt;/div&gt;&lt;div&gt;&lt;br&gt;&lt;/div&gt;&lt;div&gt;&lt;br&gt;&lt;/div&gt;" style="shape=folder;fontStyle=1;tabWidth=80;tabHeight=30;tabPosition=left;html=1;boundedLbl=1;whiteSpace=wrap;" parent="1" vertex="1">
                    <mxGeometry x="450" y="1280" width="450" height="130" as="geometry"/>
                </mxCell>
                <mxCell id="52" value="Routes" style="shape=folder;fontStyle=1;tabWidth=80;tabHeight=30;tabPosition=left;html=1;boundedLbl=1;whiteSpace=wrap;" parent="1" vertex="1">
                    <mxGeometry x="475" y="1330" width="140" height="70" as="geometry"/>
                </mxCell>
                <mxCell id="53" value="Persistence" style="shape=folder;fontStyle=1;tabWidth=80;tabHeight=30;tabPosition=left;html=1;boundedLbl=1;whiteSpace=wrap;" parent="1" vertex="1">
                    <mxGeometry x="735" y="1330" width="140" height="70" as="geometry"/>
                </mxCell>
                <mxCell id="54" value="&lt;div&gt;Interface Adapters&lt;/div&gt;&lt;div&gt;&lt;br&gt;&lt;/div&gt;&lt;div&gt;&lt;br&gt;&lt;/div&gt;&lt;div&gt;&lt;br&gt;&lt;/div&gt;&lt;div&gt;&lt;br&gt;&lt;/div&gt;" style="shape=folder;fontStyle=1;tabWidth=80;tabHeight=30;tabPosition=left;html=1;boundedLbl=1;whiteSpace=wrap;" parent="1" vertex="1">
                    <mxGeometry x="450" y="1420" width="450" height="130" as="geometry"/>
                </mxCell>
                <mxCell id="55" value="Controllers" style="shape=folder;fontStyle=1;tabWidth=80;tabHeight=30;tabPosition=left;html=1;boundedLbl=1;whiteSpace=wrap;" parent="1" vertex="1">
                    <mxGeometry x="465" y="1460" width="140" height="70" as="geometry"/>
                </mxCell>
                <mxCell id="56" value="Repositories" style="shape=folder;fontStyle=1;tabWidth=80;tabHeight=30;tabPosition=left;html=1;boundedLbl=1;whiteSpace=wrap;" parent="1" vertex="1">
                    <mxGeometry x="735" y="1460" width="140" height="70" as="geometry"/>
                </mxCell>
                <mxCell id="57" value="&lt;div&gt;Application Services/Use Case Services&lt;/div&gt;&lt;div&gt;&lt;br&gt;&lt;/div&gt;&lt;div&gt;&lt;br&gt;&lt;/div&gt;&lt;div&gt;&lt;br&gt;&lt;/div&gt;&lt;div&gt;&lt;br&gt;&lt;/div&gt;" style="shape=folder;fontStyle=1;tabWidth=80;tabHeight=30;tabPosition=left;html=1;boundedLbl=1;whiteSpace=wrap;" parent="1" vertex="1">
                    <mxGeometry x="450" y="1565" width="450" height="130" as="geometry"/>
                </mxCell>
                <mxCell id="58" value="App Services" style="shape=folder;fontStyle=1;tabWidth=80;tabHeight=30;tabPosition=left;html=1;boundedLbl=1;whiteSpace=wrap;" parent="1" vertex="1">
                    <mxGeometry x="465" y="1610" width="140" height="70" as="geometry"/>
                </mxCell>
                <mxCell id="59" value="&lt;div&gt;Entities/Core/Domain&lt;/div&gt;&lt;div&gt;&lt;br&gt;&lt;/div&gt;&lt;div&gt;&lt;br&gt;&lt;/div&gt;&lt;div&gt;&lt;br&gt;&lt;/div&gt;&lt;div&gt;&lt;br&gt;&lt;/div&gt;&lt;div&gt;&lt;br&gt;&lt;/div&gt;" style="shape=folder;fontStyle=1;tabWidth=80;tabHeight=30;tabPosition=left;html=1;boundedLbl=1;whiteSpace=wrap;" parent="1" vertex="1">
                    <mxGeometry x="450" y="1720" width="450" height="140" as="geometry"/>
                </mxCell>
                <mxCell id="60" value="Aggregates" style="shape=folder;fontStyle=1;tabWidth=80;tabHeight=30;tabPosition=left;html=1;boundedLbl=1;whiteSpace=wrap;" parent="1" vertex="1">
                    <mxGeometry x="455" y="1780" width="140" height="70" as="geometry"/>
                </mxCell>
                <mxCell id="61" value="Value Objects" style="shape=folder;fontStyle=1;tabWidth=80;tabHeight=30;tabPosition=left;html=1;boundedLbl=1;whiteSpace=wrap;" parent="1" vertex="1">
                    <mxGeometry x="605" y="1780" width="140" height="70" as="geometry"/>
                </mxCell>
                <mxCell id="62" value="Services" style="shape=folder;fontStyle=1;tabWidth=80;tabHeight=30;tabPosition=left;html=1;boundedLbl=1;whiteSpace=wrap;" parent="1" vertex="1">
                    <mxGeometry x="755" y="1780" width="140" height="70" as="geometry"/>
                </mxCell>
                <mxCell id="63" style="edgeStyle=orthogonalEdgeStyle;rounded=0;orthogonalLoop=1;jettySize=auto;html=1;entryX=0;entryY=0;entryDx=110;entryDy=30;entryPerimeter=0;dashed=1;" parent="1" source="52" target="55" edge="1">
                    <mxGeometry relative="1" as="geometry"/>
                </mxCell>
                <mxCell id="64" style="edgeStyle=orthogonalEdgeStyle;rounded=0;orthogonalLoop=1;jettySize=auto;html=1;entryX=0;entryY=0;entryDx=110;entryDy=30;entryPerimeter=0;dashed=1;" parent="1" source="55" target="58" edge="1">
                    <mxGeometry relative="1" as="geometry"/>
                </mxCell>
                <mxCell id="65" style="edgeStyle=orthogonalEdgeStyle;rounded=0;orthogonalLoop=1;jettySize=auto;html=1;entryX=0.5;entryY=1;entryDx=0;entryDy=0;entryPerimeter=0;dashed=1;" parent="1" source="56" target="53" edge="1">
                    <mxGeometry relative="1" as="geometry"/>
                </mxCell>
                <mxCell id="66" style="edgeStyle=orthogonalEdgeStyle;rounded=0;orthogonalLoop=1;jettySize=auto;html=1;entryX=0;entryY=0;entryDx=140;entryDy=60;entryPerimeter=0;dashed=1;" parent="1" source="56" target="58" edge="1">
                    <mxGeometry relative="1" as="geometry">
                        <Array as="points">
                            <mxPoint x="815" y="1670"/>
                        </Array>
                    </mxGeometry>
                </mxCell>
                <mxCell id="67" style="edgeStyle=orthogonalEdgeStyle;rounded=0;orthogonalLoop=1;jettySize=auto;html=1;entryX=0;entryY=0;entryDx=110;entryDy=30;entryPerimeter=0;dashed=1;" parent="1" source="58" target="60" edge="1">
                    <mxGeometry relative="1" as="geometry"/>
                </mxCell>
                <mxCell id="68" style="edgeStyle=orthogonalEdgeStyle;rounded=0;orthogonalLoop=1;jettySize=auto;html=1;entryX=0.931;entryY=0.494;entryDx=0;entryDy=0;entryPerimeter=0;dashed=1;" parent="1" source="58" target="61" edge="1">
                    <mxGeometry relative="1" as="geometry"/>
                </mxCell>
                <mxCell id="69" style="edgeStyle=orthogonalEdgeStyle;rounded=0;orthogonalLoop=1;jettySize=auto;html=1;entryX=0;entryY=0;entryDx=110;entryDy=30;entryPerimeter=0;dashed=1;" parent="1" source="58" target="62" edge="1">
                    <mxGeometry relative="1" as="geometry">
                        <Array as="points">
                            <mxPoint x="565" y="1720"/>
                            <mxPoint x="865" y="1720"/>
                        </Array>
                    </mxGeometry>
                </mxCell>
                <mxCell id="70" style="edgeStyle=none;html=1;exitX=0;exitY=0.5;exitDx=0;exitDy=0;entryX=0;entryY=0;entryDx=0;entryDy=50;entryPerimeter=0;dashed=1;dashPattern=1 1;" parent="1" source="-gaBI5YNp0DLK8B5nc4l-7" target="52" edge="1">
                    <mxGeometry relative="1" as="geometry">
                        <Array as="points">
                            <mxPoint x="40" y="305"/>
                            <mxPoint x="40" y="1380"/>
                        </Array>
                    </mxGeometry>
                </mxCell>
                <mxCell id="71" value="&amp;lt;&amp;lt;manifestt&amp;gt;&amp;gt;" style="edgeLabel;html=1;align=center;verticalAlign=middle;resizable=0;points=[];" parent="70" vertex="1" connectable="0">
                    <mxGeometry x="0.2587" y="1" relative="1" as="geometry">
                        <mxPoint y="176" as="offset"/>
                    </mxGeometry>
                </mxCell>
                <mxCell id="72" style="edgeStyle=none;html=1;exitX=0;exitY=0.5;exitDx=0;exitDy=0;entryX=0;entryY=0;entryDx=0;entryDy=50;entryPerimeter=0;dashed=1;dashPattern=1 1;" parent="1" source="-gaBI5YNp0DLK8B5nc4l-9" target="55" edge="1">
                    <mxGeometry relative="1" as="geometry">
                        <Array as="points">
                            <mxPoint x="120" y="595"/>
                            <mxPoint x="120" y="1510"/>
                        </Array>
                    </mxGeometry>
                </mxCell>
                <mxCell id="74" value="&amp;lt;&amp;lt;manifest&amp;gt;&amp;gt;" style="edgeLabel;html=1;align=center;verticalAlign=middle;resizable=0;points=[];" parent="72" vertex="1" connectable="0">
                    <mxGeometry x="0.2299" y="4" relative="1" as="geometry">
                        <mxPoint x="-4" y="186" as="offset"/>
                    </mxGeometry>
                </mxCell>
                <mxCell id="75" style="edgeStyle=none;html=1;exitX=0;exitY=0.5;exitDx=0;exitDy=0;entryX=0;entryY=0;entryDx=0;entryDy=50;entryPerimeter=0;dashed=1;dashPattern=1 1;" parent="1" source="-gaBI5YNp0DLK8B5nc4l-11" target="58" edge="1">
                    <mxGeometry relative="1" as="geometry">
                        <Array as="points">
                            <mxPoint x="200" y="825"/>
                            <mxPoint x="200" y="1660"/>
                        </Array>
                    </mxGeometry>
                </mxCell>
                <mxCell id="76" value="&amp;lt;&amp;lt;manifest&amp;gt;&amp;gt;" style="edgeLabel;html=1;align=center;verticalAlign=middle;resizable=0;points=[];" parent="75" vertex="1" connectable="0">
                    <mxGeometry x="0.4987" y="2" relative="1" as="geometry">
                        <mxPoint y="1" as="offset"/>
                    </mxGeometry>
                </mxCell>
                <mxCell id="77" style="edgeStyle=none;html=1;exitX=0.5;exitY=1;exitDx=0;exitDy=0;entryX=0;entryY=0;entryDx=450;entryDy=112.5;entryPerimeter=0;dashed=1;dashPattern=1 1;" parent="1" source="-gaBI5YNp0DLK8B5nc4l-13" target="59" edge="1">
                    <mxGeometry relative="1" as="geometry">
                        <Array as="points">
                            <mxPoint x="675" y="1190"/>
                            <mxPoint x="1120" y="1190"/>
                            <mxPoint x="1120" y="1833"/>
                        </Array>
                    </mxGeometry>
                </mxCell>
                <mxCell id="78" value="&amp;lt;&amp;lt;manifest&amp;gt;&amp;gt;" style="edgeLabel;html=1;align=center;verticalAlign=middle;resizable=0;points=[];" parent="77" vertex="1" connectable="0">
                    <mxGeometry x="0.422" y="5" relative="1" as="geometry">
                        <mxPoint x="-5" y="167" as="offset"/>
                    </mxGeometry>
                </mxCell>
                <mxCell id="79" style="edgeStyle=none;html=1;exitX=1;exitY=0.5;exitDx=0;exitDy=0;entryX=0;entryY=0;entryDx=140;entryDy=50;entryPerimeter=0;dashed=1;dashPattern=1 1;" parent="1" source="-gaBI5YNp0DLK8B5nc4l-15" target="56" edge="1">
                    <mxGeometry relative="1" as="geometry">
                        <Array as="points">
                            <mxPoint x="1230" y="595"/>
                            <mxPoint x="1230" y="1510"/>
                        </Array>
                    </mxGeometry>
                </mxCell>
                <mxCell id="80" value="&amp;lt;&amp;lt;manifest&amp;gt;&amp;gt;" style="edgeLabel;html=1;align=center;verticalAlign=middle;resizable=0;points=[];" parent="79" vertex="1" connectable="0">
                    <mxGeometry x="0.4751" y="6" relative="1" as="geometry">
                        <mxPoint as="offset"/>
                    </mxGeometry>
                </mxCell>
            </root>
        </mxGraphModel>
    </diagram>
</mxfile>